<svg width="109" height="32" viewBox="0 0 109 32" fill="none" xmlns="http://www.w3.org/2000/svg">
<g clip-path="url(#clip0_346_2357)">
<path d="M30.1607 11.4187C27.9973 9.25524 24.6422 9.00072 22.2012 10.6435C21.8657 10.8633 21.5533 11.1179 21.2641 11.4187L19.0775 13.6052L18.985 13.6978L18.6263 14.0564L17.9553 13.3854L18.4065 12.9342L20.5931 10.7476C20.8939 10.4469 21.1484 10.1345 21.3682 9.79899C23.011 7.35792 22.7449 4.00289 20.5931 1.83948C18.1404 -0.61316 14.1491 -0.61316 11.6849 1.83948C9.23225 4.29212 9.23225 8.29501 11.6849 10.7476L14.3342 13.397L13.4087 14.3225L10.7594 11.6732C8.30673 9.22053 4.31541 9.22053 1.8512 11.6732C-0.601441 14.1258 -0.601441 18.1171 1.8512 20.5813C4.01461 22.7448 7.36964 22.9993 9.82228 21.3565C10.1578 21.1367 10.4701 20.8821 10.7594 20.5813L13.4087 17.932L14.0797 18.603L13.7789 18.8923L11.4304 21.2408C8.97773 23.6934 8.97773 27.6963 11.4304 30.1489C13.883 32.6016 17.8859 32.6016 20.3385 30.1489C22.7912 27.6963 22.7912 23.705 20.3385 21.2408L19.9221 20.8243L17.6892 18.5915L18.6148 17.6659L21.2641 20.3153C23.7167 22.7679 27.7196 22.7679 30.1722 20.3153C32.6133 17.8742 32.6133 13.8713 30.1607 11.4187ZM11.2915 16.4281L8.94303 18.7766L8.93146 18.7881C8.87361 18.846 8.8042 18.9038 8.74635 18.9617C8.72322 18.9848 8.70008 18.9964 8.67694 19.0195C8.63066 19.0658 8.57282 19.1005 8.51497 19.1468C8.48026 19.1699 8.44556 19.2046 8.39928 19.2278C8.36457 19.2509 8.3183 19.274 8.28359 19.2972C8.22575 19.3319 8.15633 19.3666 8.09849 19.4013C8.08692 19.4129 8.07535 19.4129 8.06378 19.4244C8.02907 19.4476 7.9828 19.4707 7.94809 19.4823C7.94809 19.4823 7.94809 19.4823 7.93652 19.4823C6.53666 20.1649 4.80131 19.9219 3.6444 18.765C2.91555 18.0361 2.54534 17.0759 2.54534 16.1157C2.54534 15.9306 2.55691 15.757 2.58005 15.5835C2.59162 15.4678 2.61476 15.3521 2.64946 15.2249C2.68417 15.0976 2.70731 14.9935 2.75358 14.8778C2.81143 14.7043 2.88084 14.5423 2.9734 14.3803C3.03124 14.2762 3.08909 14.1605 3.1585 14.0564C3.22792 13.9523 3.29733 13.8482 3.37831 13.7556C3.4593 13.663 3.54028 13.5589 3.63283 13.4664C4.45423 12.645 5.56486 12.2863 6.64079 12.3905C6.75648 12.402 6.88374 12.4136 6.99943 12.4367C7.23081 12.483 7.46219 12.5524 7.69357 12.645C7.80926 12.6912 7.91338 12.7375 8.02907 12.7954C8.35301 12.9689 8.66537 13.1887 8.93146 13.4664L11.5808 16.1157L11.2915 16.4281ZM13.4897 8.94288C13.4434 8.8966 13.3971 8.85032 13.3624 8.80405C13.3277 8.75777 13.2814 8.7115 13.2351 8.66522C13.1542 8.57267 13.0847 8.46855 13.0153 8.36442C12.9459 8.2603 12.8881 8.15618 12.8302 8.04049C12.7724 7.93637 12.7261 7.82068 12.6798 7.70499C12.6104 7.53145 12.5526 7.35792 12.5179 7.18438C12.5063 7.12654 12.4947 7.06869 12.4832 7.01085C12.46 6.89515 12.4485 6.77946 12.4369 6.6522C12.3328 5.57628 12.6914 4.46565 13.5128 3.64425C14.0565 3.10051 14.7391 2.75343 15.4448 2.61461C15.5605 2.59147 15.6762 2.5799 15.8035 2.56833C15.977 2.55676 16.1621 2.54519 16.3472 2.55676C16.4629 2.55676 16.5902 2.56833 16.7059 2.59147C16.7637 2.60304 16.8216 2.61461 16.8794 2.62617C16.9951 2.64931 17.1108 2.67245 17.2265 2.70716C17.4 2.75343 17.5735 2.82285 17.7355 2.90383C17.8975 2.98482 18.0594 3.0658 18.2214 3.16992C18.4296 3.30875 18.6263 3.47072 18.8114 3.64425C18.8808 3.71367 18.9503 3.79465 19.0197 3.86406C19.0312 3.87563 19.0312 3.87563 19.0428 3.8872C19.1007 3.95662 19.1585 4.0376 19.2163 4.10701C19.2279 4.11858 19.2395 4.13015 19.2395 4.14172C19.2973 4.21113 19.3436 4.29212 19.3899 4.3731C19.4015 4.38467 19.4014 4.39624 19.413 4.41938C19.4593 4.50036 19.5056 4.58134 19.5403 4.66233C19.5403 4.6739 19.5518 4.68547 19.5518 4.69703C19.5866 4.77802 19.6328 4.87057 19.6675 4.95155V4.96312C19.7022 5.05568 19.7254 5.13666 19.7601 5.22921C19.7601 5.24078 19.7601 5.24078 19.7717 5.25235C19.7948 5.3449 19.8179 5.42589 19.8411 5.51844C19.8411 5.53001 19.8411 5.54158 19.8526 5.55314C19.8642 5.6457 19.8874 5.72668 19.8989 5.81923C19.8989 5.8308 19.8989 5.85394 19.8989 5.86551C19.9105 5.95806 19.9105 6.03904 19.9221 6.1316C19.9221 6.14317 19.9221 6.15474 19.9221 6.1663C19.9221 6.25886 19.9221 6.35141 19.9221 6.44396C19.9221 6.45553 19.9221 6.45553 19.9221 6.4671C19.9221 6.55965 19.9105 6.6522 19.8989 6.74476V6.75633C19.8874 6.84888 19.8758 6.94143 19.8526 7.03398C19.8526 7.04555 19.8526 7.05712 19.8411 7.06869C19.8179 7.16124 19.7948 7.24223 19.7717 7.33478C19.7717 7.34635 19.7601 7.35792 19.7601 7.38105C19.737 7.46204 19.7022 7.55459 19.6675 7.63557C19.6675 7.64714 19.656 7.65871 19.656 7.67028C19.6213 7.75127 19.5866 7.84382 19.5403 7.9248C19.5403 7.93637 19.5287 7.93637 19.5287 7.94794C19.4824 8.04049 19.4362 8.12147 19.3899 8.20246C19.3783 8.2256 19.3552 8.2603 19.3436 8.28344C19.332 8.30658 19.3205 8.31815 19.3089 8.34129C19.2973 8.35285 19.2973 8.36442 19.2858 8.37599C19.2626 8.4107 19.2395 8.44541 19.2048 8.48011C19.1701 8.52639 19.1354 8.58424 19.0891 8.63051C19.0891 8.64208 19.0775 8.64208 19.0775 8.65365C19.0428 8.68836 19.0197 8.72306 18.985 8.75777C18.9734 8.76934 18.9618 8.78091 18.9503 8.79248C18.9271 8.82719 18.8924 8.85032 18.8693 8.88503C18.8577 8.8966 18.8461 8.90817 18.8346 8.93131L17.9553 9.79899L16.1853 11.5691L17.8859 9.83369L16.1274 11.5806L13.4897 8.94288ZM18.5222 23.0687C19.9799 24.5264 19.9799 26.898 18.5222 28.3557C17.0645 29.8134 14.6928 29.8134 13.2351 28.3557C11.7774 26.898 11.7774 24.5264 13.2351 23.0687L15.8845 20.4194L18.5222 23.0687ZM15.8729 16.7983L15.1903 16.1273L16.1158 15.2017L16.7868 15.8727L15.8729 16.7983ZM28.3559 18.5221C26.8982 19.9798 24.5265 19.9798 23.0688 18.5221L22.6524 18.1056L20.4195 15.8727L20.7897 15.5025L20.8823 15.41L23.0688 13.2234C23.3696 12.9226 23.7051 12.6797 24.0753 12.5061C25.4752 11.8236 27.2106 12.0665 28.3675 13.2234C29.8136 14.6811 29.8136 17.0644 28.3559 18.5221Z" fill="#33B89F"/>
</g>
<path d="M46.084 22.252C44.5 22.252 43.24 21.82 42.304 20.956C41.368 20.08 40.9 18.832 40.9 17.212V14.188C40.9 12.568 41.368 11.326 42.304 10.462C43.24 9.586 44.5 9.148 46.084 9.148C47.668 9.148 48.928 9.586 49.864 10.462C50.8 11.326 51.268 12.568 51.268 14.188V17.212C51.268 18.832 50.8 20.08 49.864 20.956C48.928 21.82 47.668 22.252 46.084 22.252ZM46.084 20.128C46.972 20.128 47.662 19.87 48.154 19.354C48.646 18.838 48.892 18.148 48.892 17.284V14.116C48.892 13.252 48.646 12.562 48.154 12.046C47.662 11.53 46.972 11.272 46.084 11.272C45.208 11.272 44.518 11.53 44.014 12.046C43.522 12.562 43.276 13.252 43.276 14.116V17.284C43.276 18.148 43.522 18.838 44.014 19.354C44.518 19.87 45.208 20.128 46.084 20.128ZM53.3521 22V9.4H58.5361C59.3281 9.4 60.0241 9.562 60.6241 9.886C61.2361 10.198 61.7101 10.642 62.0461 11.218C62.3941 11.794 62.5681 12.478 62.5681 13.27V13.522C62.5681 14.302 62.3881 14.986 62.0281 15.574C61.6801 16.15 61.2001 16.6 60.5881 16.924C59.9881 17.236 59.3041 17.392 58.5361 17.392H55.7281V22H53.3521ZM55.7281 15.232H58.3021C58.8661 15.232 59.3221 15.076 59.6701 14.764C60.0181 14.452 60.1921 14.026 60.1921 13.486V13.306C60.1921 12.766 60.0181 12.34 59.6701 12.028C59.3221 11.716 58.8661 11.56 58.3021 11.56H55.7281V15.232ZM64.2153 22V9.4H72.3153V11.56H66.5913V14.566H71.8113V16.726H66.5913V19.84H72.4233V22H64.2153ZM74.1821 22V9.4H78.7001L81.2021 20.38H81.5261V9.4H83.8661V22H79.3481L76.8461 11.02H76.5221V22H74.1821ZM91.1007 22.252C90.0687 22.252 89.1807 22.066 88.4367 21.694C87.7047 21.31 87.1407 20.77 86.7447 20.074C86.3607 19.366 86.1687 18.532 86.1687 17.572V9.4H88.5447V17.644C88.5447 18.412 88.7607 19.018 89.1927 19.462C89.6367 19.906 90.2727 20.128 91.1007 20.128C91.9287 20.128 92.5587 19.906 92.9907 19.462C93.4347 19.018 93.6567 18.412 93.6567 17.644V9.4H96.0327V17.572C96.0327 18.532 95.8347 19.366 95.4387 20.074C95.0547 20.77 94.4907 21.31 93.7467 21.694C93.0147 22.066 92.1327 22.252 91.1007 22.252ZM98.3345 22V9.4H103.518C104.31 9.4 105.006 9.562 105.606 9.886C106.218 10.198 106.692 10.642 107.028 11.218C107.376 11.794 107.55 12.478 107.55 13.27V13.522C107.55 14.302 107.37 14.986 107.01 15.574C106.662 16.15 106.182 16.6 105.57 16.924C104.97 17.236 104.286 17.392 103.518 17.392H100.71V22H98.3345ZM100.71 15.232H103.284C103.848 15.232 104.304 15.076 104.652 14.764C105 14.452 105.174 14.026 105.174 13.486V13.306C105.174 12.766 105 12.34 104.652 12.028C104.304 11.716 103.848 11.56 103.284 11.56H100.71V15.232Z" fill="white"/>
<defs>
<clipPath id="clip0_346_2357">
<rect width="32" height="32" fill="white"/>
</clipPath>
</defs>
</svg>
