<svg version="1.2" xmlns="http://www.w3.org/2000/svg" viewBox="0 0 197 17" width="197" height="17">
	<title>Nytt projekt</title>
	<style>
		.s0 { fill: #ffffff } 
		.s1 { fill: #33b79f } 
	</style>
	<path id="CAPTCHASOLVER.AI" class="s0" aria-label="CAPTCHASOLVER.AI"  d="m12.1 5.8v-3.8c-1.1-1.3-2.7-1.9-4.7-1.9-4.2 0-6.5 2.8-6.5 8.1 0 5.2 2.3 8.1 6.2 8.1 2.1 0 3.8-0.7 5-2.2v-3.7c-0.8 2-2.4 3.1-4.2 3.1-2.4 0-4-1.9-4-5.1 0-3.3 1.5-5.1 4.1-5.1 1.8 0 3.1 0.8 4.1 2.5zm5.9-5.4l-4.8 15.6h3.1l1.1-3.9h5.5l1.2 3.9h3.2l-4.7-15.6zm0.3 8.9l1.2-4.1c0.2-0.7 0.4-1.7 0.7-3 0.2 1.2 0.5 2.3 0.7 3.2l1.1 3.9zm13.7-5.8h2.6c2 0 2.9 0.6 2.9 2.3 0 1.7-0.9 2.3-2.9 2.3h-2.6zm0 7.5h1.3c2.3 0 3.9-0.2 4.9-0.8 1.5-0.9 2.2-2.5 2.2-4.8 0-3.6-1.7-4.9-5.4-4.9h-6v15.6h3zm13.5 5.1h3v-12.4h4v-3.2h-11v3.2h4zm19.4-10.2v-3.8c-1.2-1.3-2.8-1.9-4.8-1.9-4.2 0-6.4 2.7-6.4 8.1 0 5.1 2.3 8.1 6.1 8.1 2.1 0 3.8-0.8 5.1-2.2v-3.7c-0.9 2-2.5 3.1-4.3 3.1-2.4 0-3.9-1.9-3.9-5.1 0-3.3 1.4-5.1 4.1-5.1 1.7 0 3 0.8 4.1 2.5zm2.7 10.2h3v-6.5h5.4v6.5h3.1v-15.6h-3.1v6h-5.4v-6h-3zm17.9-15.6l-4.8 15.6h3.1l1.1-3.9h5.5l1.2 3.9h3.2l-4.7-15.6zm0.3 8.9l1.2-4.1c0.2-0.8 0.4-1.8 0.7-3.1 0.2 1.3 0.5 2.4 0.7 3.3l1.1 3.9zm10.3 5.2c1 1.1 2.5 1.8 4.4 1.8 3.1 0 5.2-2 5.2-4.8 0-1.5-0.6-2.7-1.7-3.5-1-0.7-2-0.9-2.9-1.2-1.7-0.5-2.5-1-2.5-2 0-1 0.9-1.6 2.5-1.6 1.9 0 3.3 0.9 4.1 2.3v-3.8c-1.2-1.1-2.6-1.6-4.4-1.6-3.2 0-5.2 2-5.2 4.8 0 2.6 1.5 3.8 4.5 4.8 1.7 0.5 2.7 0.8 2.7 2.1 0 1-0.9 1.8-2.4 1.8-1.9 0-3.6-1-4.3-2.7zm17.8-11.2c2.4 0 3.6 1.7 3.6 4.9 0 3.4-1.3 5.3-3.5 5.3-2.4 0-3.6-1.8-3.6-5.3 0-3.2 1.2-4.9 3.5-4.9zm0-3.2c-4.3 0-6.5 2.6-6.5 7.8 0 5.5 2.4 8.4 6.6 8.4 4 0 6.4-2.9 6.4-8.4 0-5.2-2.2-7.8-6.5-7.8zm9 15.9h8.8v-3.1h-5.7v-12.5h-3.1zm12.5 0h4.2l4.7-15.6h-3.4l-2.4 8.9c-0.2 0.9-0.7 2.3-1 4.3-0.2-1.7-0.5-3.2-0.9-4.7l-2.4-8.5h-3.3zm10.6 0h9.7v-2.9h-6.7v-3.5h6.7v-2.9h-6.7v-3.2h6.7v-3.1h-9.7zm15.9-12.5h2.4c1.9 0 2.8 0.5 2.8 1.9 0 1.4-0.9 1.9-2.8 1.9h-2.4zm0 5.6c0.4 0.9 0.9 1.7 1.5 2.5l3.2 4.4h3.9l-5.2-6.7c3.2-0.2 4.7-1.7 4.7-4.5 0-3.2-1.7-4.4-5.4-4.4h-5.8v15.6h3.1z"/>
	<path id="CAPTCHASOLVER.AI" class="s1" aria-label="CAPTCHASOLVER.AI"  d="m176 14.9c0-1-0.5-1.4-1.7-1.4-1.2 0-1.7 0.4-1.7 1.4 0 1 0.5 1.4 1.7 1.4 1.2 0 1.7-0.4 1.7-1.4zm6.3-14.5l-4.8 15.6h3l1.2-3.9h5.5l1.2 3.9h3.2l-4.7-15.6zm0.3 8.9l1.2-4.1c0.2-0.7 0.4-1.7 0.7-3 0.2 1.2 0.5 2.3 0.7 3.2l1.1 3.9zm10.7 6.7h3v-15.6h-3z"/>
</svg>